<?xml version="1.0" encoding="utf-8"?>
<!-- Generator: Adobe Illustrator 24.0.0, SVG Export Plug-In . SVG Version: 6.00 Build 0)  -->
<svg version="1.1" id="Capa_1" xmlns="http://www.w3.org/2000/svg" xmlns:xlink="http://www.w3.org/1999/xlink" x="0px" y="0px"
	 viewBox="0 0 400 400" style="enable-background:new 0 0 400 400;" xml:space="preserve">
<style type="text/css">
	.st0{fill:#53E09B;}
	.st1{fill:#27217B;}
</style>
<circle class="st0" cx="189.4" cy="200.3" r="143.2"/>
<g>
	<g>
		<path class="st1" d="M385.6,79.5c-2,1.9-3.6,4.2-5.9,5.5c-11.3,6.5-22.7,12.7-34.1,19.1c-1,0.6-2,1.1-3.1,1.5
			c-3.3,1.2-6.7,0-8.4-2.9c-1.7-3-1.2-7,2-8.9c13.3-7.6,26.6-15.1,40.2-22.3c3.6-1.9,6.7,0,9.4,4.5
			C385.6,77.2,385.6,78.4,385.6,79.5z"/>
		<path class="st1" d="M170.7,264.3c2.8,4.8,5.3,9.2,7.8,13.6c3.5,6,2.6,9.3-3.5,12.8c-5.2,3-10.4,6-15.8,9.2
			c2.1,3.6,4.1,7.1,6.1,10.6c5.3,9.4,11.1,18.7,15.9,28.4c6.1,12.4,0.8,27.7-11.3,34.9c-11.9,7-28.1,3.9-36-7.4
			c-4.2-5.9-7.6-12.4-11.3-18.7c-8.1-14-16.2-28-24.2-42c-1.1-2-2.1-2.3-4.3-1.6c-23.5,7.8-48.6-3.2-59.3-25.7
			c-10.3-21.7-2.8-48.4,18-61.1c19-11.7,38.5-22.4,57.8-33.7c1.8-1.1,3.6-2.5,4.9-4.2c29.4-37.3,58.7-74.7,88-112.1
			c4-5.1,8.4-9.2,15.1-10c9.6-1.2,16.7,2.6,21.5,10.7c7.9,13.3,15.6,26.7,23.2,40.2c1.5,2.6,3,3.5,5.9,3.3
			c7.1-0.6,14.3-0.9,21.4-1.4c3.9-0.3,6.6,1.2,8.5,4.6c4.1,7.3,8.4,14.6,12.6,21.9c1.8,3.1,1.8,6.1-0.3,9.1
			c-4.3,6.3-8.4,12.8-12.7,19c-1.2,1.8-1.2,3-0.1,4.9c7.2,12.2,14.4,24.5,21.3,36.9c7.7,13.7,0.1,29-15.5,31.7
			c-7.7,1.3-15.4,2.9-23.1,4.4C244.9,249.8,208.2,257,170.7,264.3z M204.1,88.7c-0.5,0.8-0.8,1.3-1.1,1.8
			c-25,31.8-49.9,63.7-75,95.5c-1.3,1.6-1,2.7-0.1,4.2c11.4,19.7,22.8,39.4,34.1,59.1c1.1,1.8,2,2.2,4.1,1.8c25.5-5.1,51-10,76.5-15
			c13.8-2.7,27.6-5.5,41.8-8.3C257.7,181.5,231.1,135.4,204.1,88.7z M115.7,196.8c-9.2,5.3-18.1,10.4-27,15.6
			c-9.8,5.7-19.8,11.1-29.2,17.2c-12.9,8.3-18.2,24.7-13.5,39c7.1,21.3,30.9,30.4,50.7,19.2c17.3-9.8,34.4-19.8,51.6-29.7
			c0.6-0.4,1.2-0.9,1.9-1.4C138.7,236.7,127.3,216.9,115.7,196.8z M309.4,216.5c-0.4-0.9-1.1-2.7-2-4.4
			c-14.8-25.6-29.5-51.2-44.3-76.8c-11.4-19.7-22.8-39.4-34.1-59.1c-1.4-2.5-2.9-4.7-6-5.2c-4-0.6-6,2-8.2,4.6
			c-1.9,2.3,0.1,3.6,0.9,5.1c2,3.8,4.2,7.4,6.4,11.1C247,135.2,272,178.6,297.1,222c0.6,1,1.1,2.3,2,2.7
			C303.2,226.5,309.3,222.1,309.4,216.5z M109.3,296.6c0.7,1.3,1.3,2.3,1.8,3.3c10.5,18.2,21,36.4,31.5,54.6
			c0.8,1.4,1.6,2.8,2.6,4.1c3.6,4.3,8.3,5.9,13.7,4.7c5.3-1.1,8.7-4.5,10.3-9.7c1.3-4.3,0.2-8.2-2-11.9c-11-19-21.9-38-32.9-57
			c-0.3-0.6-0.7-1.1-1.2-1.8C125.2,287.4,117.4,291.9,109.3,296.6z M289.7,153.7c2.9-4.3,5.4-8.1,7.8-12c0.4-0.6,0.1-2-0.4-2.7
			c-2.4-4.3-4.9-8.6-7.4-12.9c-0.5-0.8-1.5-1.8-2.2-1.8c-4.6,0.1-9.1,0.5-14.3,0.8C278.8,134.7,284,143.9,289.7,153.7z M145.3,275.8
			c2.4,4.2,4.6,8,7,12c4.1-2.4,7.9-4.6,11.9-7c-2.4-4.2-4.6-8-6.9-12C153.2,271.2,149.5,273.4,145.3,275.8z"/>
		<path class="st1" d="M344.3,136.4c1.7,0.5,4.5,1.2,7.2,1.9c6.2,1.7,12.5,3.3,18.7,5c4.7,1.3,6.9,4.7,5.9,8.7c-1,4-4.6,5.9-9.3,4.7
			c-8.5-2.2-16.9-4.4-25.4-6.8c-4.2-1.2-6.2-4.4-5.5-8C336.6,138.4,339.4,136.2,344.3,136.4z"/>
		<path class="st1" d="M310.1,41.4c4.6,0,8.2,3.7,7.2,7.8c-2.2,9.4-4.7,18.7-7.4,28c-1.1,3.7-4.4,5.2-7.9,4.5
			c-3.4-0.7-5.9-3.7-5.1-7.5c2.2-9.6,4.9-19.2,7.6-28.7C305.2,42.8,307.7,41.7,310.1,41.4z"/>
		<path class="st1" d="M80.3,278.8c-8.8-0.4-14.6-3.4-18.7-9.5c-2.4-3.6-1.8-7.5,1.3-9.9c3-2.2,6.7-1.6,9.6,1.5
			c4.3,4.8,6.4,5.1,12,1.9c3.1-1.8,6.2-3.7,9.3-5.3c4-2.2,8-1.2,10,2.2c2,3.4,0.9,7.4-3,9.8c-4.2,2.6-8.5,5.1-13,7.2
			C85,277.9,81.9,278.4,80.3,278.8z"/>
		<path class="st1" d="M121.7,256c-3.8-0.2-6.7-3.3-6.5-7.1c0.2-3.8,3.3-6.6,7.2-6.4c3.8,0.1,6.7,3.3,6.5,7
			C128.6,253.3,125.5,256.1,121.7,256z"/>
	</g>
</g>
</svg>
