<?xml version="1.0" encoding="utf-8"?>
<!-- Generator: Adobe Illustrator 24.0.0, SVG Export Plug-In . SVG Version: 6.00 Build 0)  -->
<svg version="1.1" id="Capa_1" xmlns="http://www.w3.org/2000/svg" xmlns:xlink="http://www.w3.org/1999/xlink" x="0px" y="0px"
	 viewBox="0 0 200 200" style="enable-background:new 0 0 200 200;" xml:space="preserve">
<style type="text/css">
	.st0{fill:#27217B;}
</style>
<g>
	<path class="st0" d="M14.2,166.1c0-44.2,0-88.4,0-132.6c0.1-0.1,0.2-0.2,0.2-0.3c1.9-5.9,5.3-8.4,11.5-8.4c7.3,0,14.7,0,22,0
		c0.6,0,1.2,0,2,0c0-1.4,0-2.5,0-3.7C50.1,15.5,54.7,11,60.4,11c5.7,0,10.3,4.5,10.4,10.1c0,1.2,0,2.4,0,3.6c18.8,0,37.5,0,56.2,0
		c0-1.2,0-2.3,0-3.4c0.1-5.8,4.7-10.4,10.4-10.4c5.7,0,10.3,4.5,10.4,10.3c0,1.1,0,2.3,0,3.5c0.8,0,1.4,0,2.1,0c7.3,0,14.6,0,21.9,0
		c7.6,0,11.8,4.2,11.8,11.8c0,31.9,0,63.7,0,95.6c0,1.3,0.3,2.4,1.2,3.4c14.4,18,6.2,44.6-15.8,51.5c-2,0.6-4.1,1-6.2,1.5
		c-2.2,0-4.4,0-6.6,0c-0.3-0.1-0.5-0.2-0.8-0.3c-9.1-1.2-16.4-5.5-22.1-12.7c-0.4-0.5-1.3-0.9-2-0.9c-7.6-0.1-15.2,0-22.7,0
		c-2.8,0-5.7,0-8.5,0c-1.4,0-2.8-0.6-3.1-2c-0.3-1.1-0.2-2.7,0.4-3.5c0.6-0.8,2.1-1.4,3.3-1.4c8.8-0.1,17.6-0.1,26.4-0.1
		c0.6,0,1.2-0.1,1.7-0.1c-0.7-3.3-1.4-6.4-2.1-9.6c-0.7,0-1.4,0-2.1,0c-29.6,0-59.1,0-88.7,0c-3.9,0-4.9-1-4.9-5
		c0-26.4,0-52.7,0-79.1c0-3.7,1.1-4.8,4.7-4.8c42.2,0,84.5,0,126.7,0c3.6,0,4.7,1.1,4.7,4.7c0,16.1,0,32.2,0,48.2c0,0.7,0,1.4,0,1.8
		c3.3,1.4,6.5,2.7,9.6,4c0-22.8,0-45.6,0-68.5c-0.9,0-1.6,0-2.4,0c-42.3,0-84.7,0-127,0c-0.7,0-1.4,0-2.1,0c-1.8-0.2-3-1.7-3-3.5
		c0-1.7,1.3-3.2,3.1-3.4c0.6-0.1,1.3,0,1.9,0c42.5,0,84.9,0,127.4,0c0.7,0,1.5,0,2.3,0c0-5.7,0-11.1,0-16.5c0-3-1.4-4.3-4.4-4.3
		c-7.6,0-15.3,0-22.9,0c-0.4,0-0.9,0-1.5,0c0,1.3,0,2.3,0,3.4c-0.1,5.9-4.7,10.5-10.5,10.5c-5.7,0-10.2-4.6-10.3-10.4
		c0-1.1,0-2.3,0-3.3c-18.9,0-37.5,0-56.2,0c0,1.3,0,2.5,0,3.7c-0.2,5.6-4.8,10-10.3,10.1c-5.6,0-10.3-4.5-10.5-10.1
		c0-1.2,0-2.4,0-3.7c-0.8,0-1.4,0-2.1,0c-7.2,0-14.5,0-21.7,0c-4,0-5.1,1.1-5.1,5c0,42,0,84,0,126c0,4,1.1,5.1,5,5.1
		c15.2,0,30.3,0,45.5,0c2.3,0,3.9,1.5,3.9,3.5c0,2-1.6,3.4-3.8,3.4c-15.7,0-31.5,0-47.2,0c-4.5,0-8.3-2.9-9.8-7.2
		C14.6,167.1,14.4,166.6,14.2,166.1z M159.4,130.4c-14.2,0-25.7,11.5-25.7,25.7c0,14.1,11.5,25.6,25.6,25.7
		c14.2,0,25.8-11.5,25.8-25.6C185,141.9,173.5,130.4,159.4,130.4z M82.4,96.7c0-6.9,0-13.6,0-20.3c-6.3,0-12.5,0-18.6,0
		c0,6.8,0,13.6,0,20.3C70.1,96.7,76.2,96.7,82.4,96.7z M115.4,76.3c0,6.9,0,13.6,0,20.3c6.3,0,12.4,0,18.7,0c0-6.8,0-13.5,0-20.3
		C127.8,76.3,121.7,76.3,115.4,76.3z M63.7,151.1c6.3,0,12.5,0,18.7,0c0-6.8,0-13.5,0-20.3c-6.3,0-12.5,0-18.7,0
		C63.7,137.6,63.7,144.3,63.7,151.1z M63.8,103.7c0,6.8,0,13.4,0,20c6.3,0,12.5,0,18.6,0c0-6.7,0-13.3,0-20
		C76.2,103.7,70,103.7,63.8,103.7z M134.1,123.7c0-6.7,0-13.3,0-19.9c-6.3,0-12.5,0-18.7,0c0,6.7,0,13.3,0,19.9
		C121.6,123.7,127.8,123.7,134.1,123.7z M56.6,76.3c-6.4,0-12.5,0-18.7,0c0,6.8,0,13.6,0,20.3c6.3,0,12.4,0,18.7,0
		C56.6,89.8,56.6,83.1,56.6,76.3z M89.6,76.3c0,6.9,0,13.6,0,20.3c6.3,0,12.4,0,18.6,0c0-6.8,0-13.5,0-20.3
		C102,76.3,95.9,76.3,89.6,76.3z M159.9,96.7c0-6.9,0-13.6,0-20.3c-6.3,0-12.4,0-18.6,0c0,6.8,0,13.5,0,20.3
		C147.6,96.7,153.7,96.7,159.9,96.7z M56.6,130.8c-6.4,0-12.5,0-18.7,0c0,6.8,0,13.6,0,20.3c6.3,0,12.4,0,18.7,0
		C56.6,144.3,56.6,137.6,56.6,130.8z M89.6,130.8c0,6.9,0,13.6,0,20.3c6.3,0,12.4,0,18.6,0c0-6.8,0-13.5,0-20.3
		C102,130.8,95.9,130.8,89.6,130.8z M56.6,123.7c0-6.8,0-13.4,0-20c-6.3,0-12.4,0-18.6,0c0,6.7,0,13.3,0,20
		C44.2,123.7,50.3,123.7,56.6,123.7z M108.2,123.7c0-6.7,0-13.3,0-20c-6.3,0-12.4,0-18.6,0c0,6.7,0,13.3,0,20
		C95.9,123.7,102,123.7,108.2,123.7z M160,103.8c-6.3,0-12.4,0-18.7,0c0,6.7,0,13.3,0,20c3.2,0,6.2,0,9.3,0c3.1-0.1,6.2-0.2,9.4-0.3
		C160,116.8,160,110.4,160,103.8z M115.4,130.8c0,6.9,0,13.6,0,20.3c3.9,0,7.7,0,11.6,0c0.1-0.5,0.3-0.9,0.4-1.4
		c0.9-4.6,2.6-8.9,5.5-12.6c1.6-2,1.4-4.1,1.3-6.4C127.9,130.8,121.7,130.8,115.4,130.8z M63.9,28.3c0-2.2,0-4.4,0-6.6
		c0-2.2-1.4-3.8-3.4-3.8c-2,0-3.5,1.5-3.5,3.8c0,4.4,0,8.8,0,13.1c0,2.3,1.4,3.8,3.4,3.8c2,0,3.5-1.5,3.5-3.8
		C63.9,32.7,63.9,30.5,63.9,28.3z M134,28.4c0,2.2,0,4.4,0,6.6c0,2.2,1.4,3.8,3.4,3.8c2,0,3.5-1.5,3.5-3.8c0-4.4,0-8.8,0-13.1
		c0-2.2-1.4-3.8-3.4-3.8c-2,0-3.5,1.5-3.5,3.8C134,24,134,26.2,134,28.4z"/>
	<path class="st0" d="M31.6,52.7c1.9,0,3.5,1.7,3.4,3.6c-0.1,1.8-1.7,3.3-3.5,3.3c-1.9,0-3.5-1.7-3.4-3.6
		C28.2,54.1,29.8,52.6,31.6,52.7z"/>
	<path class="st0" d="M86.1,167.9c1.9,0,3.4,1.6,3.4,3.5c0,1.9-1.7,3.5-3.6,3.4c-1.9-0.1-3.3-1.7-3.3-3.6
		C82.6,169.3,84.2,167.8,86.1,167.9z"/>
	<path class="st0" d="M158.6,158.5c3.5-3.5,6.7-6.7,9.9-9.9c0.4-0.4,0.9-0.9,1.4-1.3c1.4-1,3.3-0.8,4.4,0.4c1.2,1.2,1.4,3,0.3,4.4
		c-0.8,1-1.7,1.9-2.6,2.8c-3.4,3.4-6.8,6.8-10.2,10.2c-2.3,2.3-4,2.3-6.2,0.1c-2.1-2.1-4.2-4.2-6.3-6.3c-1.7-1.8-1.8-3.7-0.4-5.2
		c1.5-1.5,3.5-1.4,5.2,0.3C155.6,155.3,157,156.8,158.6,158.5z"/>
</g>
</svg>
