<?xml version="1.0" encoding="utf-8"?>
<!-- Generator: Adobe Illustrator 24.0.0, SVG Export Plug-In . SVG Version: 6.00 Build 0)  -->
<svg version="1.1" id="Capa_1" xmlns="http://www.w3.org/2000/svg" xmlns:xlink="http://www.w3.org/1999/xlink" x="0px" y="0px"
	 viewBox="0 0 200 200" style="enable-background:new 0 0 200 200;" xml:space="preserve">
<style type="text/css">
	.st0{fill:#27217B;}
</style>
<g>
	<path class="st0" d="M105.4,7c4,0.7,8,1.2,11.9,2.2c24.7,6.6,43.1,28.7,45.3,54.2c1.4,15.7-2.9,29.9-11.2,43.1
		c-7.1,11.4-15.7,21.8-23.9,32.4c-1.3,1.7-2.7,3.4-4.2,5.4c3,0.6,5.9,1.1,8.7,1.7c6.9,1.5,13.6,3.6,19.7,7.3c2.7,1.7,5.3,3.7,7.5,6
		c5,5.5,4.9,12.3,0,18c-3.2,3.7-7.3,6.2-11.7,8.2c-8.9,4.1-18.4,6-28,7.2c-3.6,0.4-7.2,0.7-10.8,1.1c-5.1,0-10.2,0-15.3,0
		c-3.6-0.4-7.2-0.7-10.8-1.1c-11-1.4-21.9-3.6-31.7-9.2c-3.1-1.8-6-4.1-8.4-6.8c-4.5-5.1-4.4-11.5-0.2-16.8
		c3.6-4.6,8.5-7.3,13.8-9.5c7.1-3,14.6-4.7,22.6-6c-0.6-0.8-1-1.4-1.4-2c-8.1-10.7-16.4-21.3-24.2-32.1c-6.4-8.9-11-18.8-13-29.8
		C34,47.2,55.8,14.9,88.8,8.2c2.5-0.5,5-0.8,7.5-1.2C99.3,7,102.4,7,105.4,7z M101,161.9c0.4-0.5,0.6-0.7,0.8-1
		c8.6-11.3,17.3-22.5,25.8-33.9c6.4-8.6,12.9-17.2,18.7-26.2c7.8-12.2,10.8-25.7,8.7-40.2c-4.9-32.8-39.2-54-70.7-43.5
		c-29.5,9.8-45,41.4-34.8,70.9c3.3,9.4,8.6,17.7,14.6,25.5c9.4,12.4,19,24.7,28.5,37.1C95.4,154.1,98.1,157.9,101,161.9z
		 M98.4,186.5c13.9,0,27.4-1.2,40.5-5.5c5.1-1.7,10.2-3.8,14.1-7.6c3.6-3.5,3.6-6.9-0.1-10.2c-1.9-1.7-4-3.2-6.2-4.4
		c-8.5-4.5-17.9-6.4-27.3-7.6c-0.6-0.1-1.6,0.5-2,1.1c-4.3,5.7-8.5,11.4-12.7,17.1c-2.5,3.4-4.9,3.4-7.3,0
		c-4.2-5.7-8.4-11.4-12.6-17.2c-0.7-0.9-1.3-1.2-2.4-1c-5.6,1.2-11.3,2.1-16.9,3.6c-5.8,1.6-11.4,3.8-16,8c-4.2,3.8-4.3,7.5,0.1,11
		c2.9,2.3,6.2,4.2,9.7,5.7C71.9,184.6,85.2,186.1,98.4,186.5z"/>
	<path class="st0" d="M126.5,69c0,14-11.4,25.5-25.4,25.5c-14.1,0-25.6-11.5-25.5-25.6c0-14,11.5-25.5,25.5-25.4
		C115.1,43.5,126.5,55,126.5,69z M119.2,69c0-10-8.2-18.2-18.2-18.2c-10.1,0-18.3,8.3-18.2,18.4c0.1,10,8.3,18.1,18.3,18.1
		C111.1,87.2,119.3,79,119.2,69z"/>
	<path class="st0" d="M148.4,67.3c0,0.7,0,1.2,0,1.7c-0.1,2.3-1.5,4-3.6,4c-2,0-3.4-1.6-3.7-3.9c-0.5-4.2-0.8-8.5-2.1-12.5
		c-3.9-12.1-12-20.4-23.9-25.1c-2.2-0.9-3.2-2.2-3.1-4c0.3-2.5,2.6-3.9,5.3-3c7.6,2.8,14.1,7.3,19.4,13.4
		C144.1,46.4,147.8,56.3,148.4,67.3z"/>
	<path class="st0" d="M105,25.3c0,2-1.8,3.7-3.8,3.6c-2-0.1-3.5-1.7-3.4-3.7c0-2,1.8-3.7,3.8-3.6C103.4,21.7,105,23.4,105,25.3z"/>
</g>
</svg>
