<?xml version="1.0" encoding="utf-8"?>
<!-- Generator: Adobe Illustrator 24.0.0, SVG Export Plug-In . SVG Version: 6.00 Build 0)  -->
<svg version="1.1" id="Capa_1" xmlns="http://www.w3.org/2000/svg" xmlns:xlink="http://www.w3.org/1999/xlink" x="0px" y="0px"
	 viewBox="0 0 200 200" style="enable-background:new 0 0 200 200;" xml:space="preserve">
<style type="text/css">
	.st0{fill:#325AD2;}
</style>
<g>
	<path class="st0" d="M15,110.9c0.7-1.3,1.9-1.9,3.3-2.2c2.7-0.5,5.3-1.1,8.2-1.7c-1.7-2.4-3.2-4.7-4.7-6.9
		c-1.6-2.4-1.5-3.3,0.5-5.4c2.4-2.4,4.8-4.8,7.2-7.2c1.7-1.7,2.7-1.7,4.7-0.4c2.4,1.6,4.7,3.2,7.3,5c0.6-2.8,1.1-5.3,1.6-7.8
		c0.6-3,1-3.4,3.9-4c0.5-6.6,1.9-13,4.7-19c6.3-13.8,16.6-23.4,30.7-28.7c7-2.6,14.2-3.7,21.7-3.1c1.7,0.1,3.1-0.2,4.4-1.4
		c1.7-1.5,3.6-2.8,5.5-4.2c2.7-2,3.9-1.9,5.9,0.9c1.8,2.4,3.6,4.8,5.4,7.2c0.8,1.1,1.8,1.9,3.2,1.6c1.5-0.3,2.1-1.4,2.4-2.9
		c0.5-3.4,1-6.7,1.5-10.1c0.4-2.2,1.6-3.1,3.8-2.8c5.2,0.7,10.4,1.5,15.6,2.2c2.6,0.4,3.5,1.6,3.1,4.3c-0.4,3.2-0.9,6.3-1.4,9.4
		c-0.2,1.4,0,2.7,1.3,3.5c1.4,0.8,2.6,0.3,3.7-0.6c2.6-2,5.2-3.9,7.8-5.8c2-1.5,3.5-1.3,5,0.7c3.1,4.1,6.3,8.3,9.3,12.5
		c1.6,2.1,1.4,3.5-0.8,5.1c-2.5,1.9-5.1,3.8-7.6,5.7c-1.2,0.9-2,2-1.6,3.6c0.4,1.5,1.7,2,3.1,2.1c3.2,0.4,6.4,0.9,9.6,1.4
		c2.4,0.4,3.3,1.7,3,4.1c-0.7,5.1-1.5,10.2-2.2,15.2c-0.4,2.7-1.5,3.6-4.2,3.2c-3.2-0.5-6.4-0.9-9.6-1.4c-1.4-0.2-2.6,0-3.4,1.3
		c-0.8,1.3-0.4,2.5,0.5,3.7c1.9,2.5,3.8,5.1,5.7,7.6c1.7,2.3,1.6,3.7-0.7,5.4c-4.1,3.1-8.1,6.1-12.2,9.1c-2.2,1.7-3.6,1.5-5.2-0.7
		c-1.9-2.5-3.8-5.1-5.7-7.6c-0.9-1.2-1.9-2-3.4-1.6c-1.6,0.4-2.1,1.7-2.3,3.2c-0.4,3.2-0.9,6.4-1.4,9.6c-0.3,2.3-1.5,3.3-3.8,3
		c-5.3-0.7-10.5-1.4-15.8-2.2c-2.6-0.4-3.3-1.4-3-4.1c0.4-2.9,0.8-5.9,1.2-8.8c0.1-0.5,0.3-1.1,0.1-1.5c-0.3-1-0.7-2.1-1.4-2.8
		c-0.9-0.9-2.2-0.5-3.2,0.2c-2.6,2-5.3,4-7.9,5.9c-2.4,1.8-3.7,1.6-5.5-0.8c-3-4-6-8-9-12.1c-1.7-2.3-1.5-3.6,0.8-5.3
		c2.5-1.9,5.1-3.8,7.6-5.7c1.2-0.9,1.9-2,1.5-3.4c-0.4-1.4-1.5-1.9-2.9-2.1c-3.2-0.4-6.3-0.9-9.4-1.3c-2.8-0.4-3.7-1.5-3.3-4.3
		c0.7-5.1,1.4-10.3,2.2-15.4c0.4-2.4,1.6-3.3,4-2.9c3.3,0.5,6.5,0.9,9.8,1.4c1.4,0.2,2.6,0,3.4-1.2c0.8-1.2,0.5-2.4-0.4-3.6
		c-2-2.6-3.9-5.2-5.8-7.8c-0.6-0.9-1-1.9-1.7-3.4c-2.7,0.4-6,0.5-9.1,1.2C74,39.8,61.9,49.8,55.8,66c-6.2,16.3-3.8,31.8,6.4,46
		c3.5,4.9,8,8.7,13,12c3.9,2.6,6.8,6,8.1,10.5c0.5,2,0.8,4,0.9,6.1c0.1,3.5,0,6.9,0,10.4c0,3.9,2.2,6.2,6.1,6.2
		c7.3,0.1,14.6,0.1,22,0c3.9,0,6.1-2.3,6.1-6.2c0-3.4,0-6.8,0-10.2c0.1-6.9,2.9-12.4,8.5-16.4c2.2-1.6,4.4-3.2,6.8-5
		c1.2,1.3,2.4,2.7,3.8,4.2c-2.2,1.6-4.1,3.3-6.2,4.7c-5,3.2-7.3,7.8-7.1,13.7c0.1,3.1,0,6.3,0,9.4c0,3.9-1.6,7-4.7,9.4
		c-0.5,0.4-1,1.3-1,2c-0.1,4.6,0,9.2,0,13.7c0,7.2-4.8,12-12,12.1c-3.4,0-6.8,0-10.2,0c-7.1-0.1-11.9-4.9-12-12.1
		c0-4.6,0-9.3-0.1-13.9c0-0.6-0.4-1.5-0.9-1.9c-3.1-2.4-4.6-5.5-4.7-9.4c0-2.5,0-4.9,0-7.8c-1.4,1.3-2.5,2.4-3.6,3.5
		c-2.1,2-3,2.1-5.4,0.5c-2.2-1.5-4.5-3.1-6.9-4.8c-0.7,3.1-1.3,5.9-1.9,8.7c-0.5,2.2-1.4,2.9-3.6,2.9c-3.4,0-6.7,0-10.1,0
		c-2.1,0-3-0.7-3.5-2.8c-0.6-2.8-1.2-5.6-1.9-8.8c-2.2,1.5-4.3,2.9-6.3,4.3c-3.2,2.2-3.7,2.2-6.5-0.6c-2.2-2.2-4.4-4.4-6.6-6.6
		c-1.7-1.7-1.8-2.8-0.4-4.9c1.6-2.3,3.1-4.6,4.9-7.2c-2.7-0.6-5.2-1.1-7.8-1.6c-1.6-0.3-3-0.8-3.8-2.3C15,119.6,15,115.2,15,110.9z
		 M158.6,104.5c3.1-2.4,6.1-4.6,9.1-6.8c-1.7-2.2-3.2-4.3-4.7-6.3c-2.3-3.1-2.6-6.5-0.7-9.9c1.8-3.1,5.3-4.5,9.3-3.9
		c2.4,0.4,4.8,0.7,7.5,1.1c0.5-3.8,1.1-7.4,1.6-11.2c-0.9-0.2-1.7-0.3-2.4-0.4c-2.1-0.3-4.3-0.6-6.4-1c-3.3-0.7-5.5-2.8-6.3-6
		c-0.9-3.3-0.1-6.3,2.5-8.5c2.3-2,4.7-3.7,7.2-5.6c-2-2.6-3.9-5.1-5.8-7.7c-0.3-0.4-0.7-0.8-1.1-1.4c-2.3,1.7-4.4,3.4-6.6,4.9
		c-3.7,2.6-8.3,2.2-11.3-0.9c-2.4-2.5-2.6-5.5-2.1-8.8c0.3-2.1,0.6-4.3,1-6.6c-3.8-0.5-7.5-1.1-11.3-1.6c-0.4,2.7-0.8,5.2-1.1,7.6
		c-0.5,3.9-2.6,6.5-6.3,7.6c-3.6,1-6.9-0.3-9.5-3.7c-1.5-2-3-4-4.6-6.1c-3.1,2.3-6.1,4.6-9.1,6.8c1.7,2.3,3.3,4.4,4.8,6.5
		c2.2,3.1,2.6,6.4,0.6,9.7c-2,3.3-5.1,4.5-8.9,4c-2.6-0.4-5.2-0.7-7.9-1.1c-0.5,3.8-1.1,7.5-1.6,11.2c2.8,0.4,5.3,0.8,7.8,1.1
		c4.9,0.7,8,4.5,7.6,9.3c-0.2,2.7-1.7,4.8-3.8,6.4c-2,1.5-4.1,3.1-6.2,4.6c2.1,2.8,4.1,5.5,6.1,8.1c0.2,0.3,0.5,0.6,0.8,1
		c2.1-1.6,4.2-3.2,6.3-4.7c2.1-1.6,4.5-2.3,7.1-1.7c4.9,1.1,7.5,5.2,6.7,10.5c-0.4,2.4-0.7,4.8-1,7.3c3.9,0.5,7.5,1.1,11.2,1.6
		c0.4-2.6,0.7-4.9,1-7.2c0.6-4.3,2.8-7.1,6.5-8.1c3.6-0.9,6.9,0.3,9.5,3.8C155.6,100.4,157,102.4,158.6,104.5z M55.4,148.7
		c0.5-2.2,0.9-4.3,1.4-6.3c1.2-5.1,5.3-6.7,9.6-3.8c1.7,1.2,3.5,2.4,5.3,3.7c1.7-1.8,3.3-3.5,5-5.1c0.9-0.8,0.8-1.4,0.4-2.4
		c-2-4.6-6.4-6.4-10-9.4c-5.1,8.6-13.4,10.3-19.6,8.6c-6.9-1.8-12.3-7.9-12.6-15.2c-0.4-10.2,5.2-16.1,14.8-18.4
		c-0.7-2.9-1.4-5.8-2.1-8.9c-0.1,0.3-0.2,0.5-0.3,0.8c-1.5,5.7-5.3,7.1-10.2,3.7c-1.6-1.1-3.2-2.2-4.8-3.3c-1.7,1.7-3.2,3.2-4.7,4.8
		c-0.1,0.1-0.2,0.3-0.3,0.5c1.2,1.8,2.5,3.6,3.7,5.5c2.6,3.9,0.9,8.1-3.6,9.2c-2.2,0.5-4.4,1-6.7,1.5c0,2.3,0,4.6,0,6.8
		c2.1,0.5,4.1,0.9,6.1,1.3c5.3,1.2,6.9,5.3,3.8,9.8c-1.2,1.7-2.3,3.4-3.3,4.8c1.8,1.9,3.4,3.6,5.1,5.3c1.8-1.2,3.6-2.5,5.4-3.7
		c4.1-2.7,8.3-1,9.4,3.7c0.5,2.2,0.9,4.3,1.4,6.5C51,148.7,53.1,148.7,55.4,148.7z M52.9,128.7c3.6-0.1,7.1-2.2,9.3-6.3
		c0.5-0.9,0.4-1.5-0.3-2.2c-3.5-3.7-6.6-7.8-8.7-12.4c-0.8-1.8-1.9-1.9-3.6-1.6c-5.6,1.3-9.4,6.4-8.9,12.1
		C41.3,124.3,45.9,128.6,52.9,128.7z M112.6,174.5c-7.7,0-15.2,0-22.7,0c0,1.1-0.1,2,0,3c0.2,3.1,2.5,5.3,5.5,5.4
		c3.9,0.1,7.8,0.1,11.7,0c3-0.1,5.3-2.4,5.5-5.3C112.6,176.6,112.6,175.6,112.6,174.5z M89.9,168.6c7.6,0,15.1,0,22.6,0
		c0-1.9,0-3.6,0-5.5c-7.6,0-15.1,0-22.6,0C89.9,165,89.9,166.7,89.9,168.6z"/>
	<path class="st0" d="M52.6,17c1.9,7.5,3.9,15.1,5.8,22.8c-1.8,0.5-3.5,0.9-5.5,1.5c-1.9-7.6-3.9-15.1-5.8-22.7
		c1.7-0.5,3.2-1.1,4.8-1.6C52.1,17,52.4,17,52.6,17z"/>
	<path class="st0" d="M104,137.3c-1.8,0-3.6,0-5.3,0c-0.5-2.2-0.8-4.4-1.6-6.4c-1.7-4.5-4.8-8-9.2-9.9c-6-2.6-11.4-5.9-15.9-10.6
		c-15.2-16-13.9-42.6,2.9-57c1.6-1.3,3.2-2.6,5-4c1.1,1.7,2,3.2,3.1,4.8c-1.1,0.9-2.2,1.6-3.2,2.5c-19.8,16.2-15.8,47.2,7.6,57.7
		c4.7,2.1,9,4.6,12.1,8.9C102.4,127.4,104,132.1,104,137.3z"/>
	<path class="st0" d="M22.7,37.1c1.2-1.6,2.2-3.1,3.3-4.6c6.7,4.8,13.2,9.5,19.9,14.2c-1.1,1.6-2.2,3-3.3,4.6
		C35.9,46.6,29.4,41.9,22.7,37.1z"/>
	<path class="st0" d="M19.3,71.8c-0.5-1.9-0.9-3.6-1.4-5.5c7.6-1.9,15.1-3.8,22.8-5.7c0.5,1.9,0.9,3.6,1.4,5.5
		C34.5,68,27,69.8,19.3,71.8z"/>
	<path class="st0" d="M150.7,142.4c1.2-1.5,2.4-2.9,3.6-4.4c5.7,4.7,11.3,9.4,17.1,14.2c-1.2,1.5-2.4,2.9-3.6,4.4
		C162.1,151.9,156.5,147.2,150.7,142.4z"/>
	<path class="st0" d="M143.8,165.8c-1.8,0-3.6,0-5.4,0c0-6.6,0-13.2,0-19.8c1.8,0,3.5,0,5.4,0C143.8,152.6,143.8,159.1,143.8,165.8z
		"/>
	<path class="st0" d="M175.2,123.2c0,1.9,0,3.6,0,5.5c-6.6,0-13.1,0-19.8,0c0-1.8,0-3.6,0-5.5C162.1,123.2,168.6,123.2,175.2,123.2z
		"/>
	<path class="st0" d="M98.5,151.4c0-2.8,0-5.5,0-8.3c1.8,0,3.6,0,5.5,0c0,2.7,0,5.4,0,8.3C102.2,151.4,100.5,151.4,98.5,151.4z"/>
	<path class="st0" d="M160.3,67c0,12.5-10.2,22.7-22.7,22.7c-12.5,0-22.9-10.3-22.8-22.8c0-12.6,10.3-22.8,22.9-22.7
		C150.2,44.2,160.3,54.4,160.3,67z M154.6,67c0-9.4-7.6-17.1-17-17.1c-9.4,0-17.2,7.7-17.2,17.1c0,9.3,7.8,17.1,17.1,17.1
		C146.8,84,154.5,76.3,154.6,67z"/>
</g>
</svg>
