<?xml version="1.0" encoding="utf-8"?>
<!-- Generator: Adobe Illustrator 24.0.0, SVG Export Plug-In . SVG Version: 6.00 Build 0)  -->
<svg version="1.1" id="Capa_1" xmlns="http://www.w3.org/2000/svg" xmlns:xlink="http://www.w3.org/1999/xlink" x="0px" y="0px"
	 viewBox="0 0 200 200" style="enable-background:new 0 0 200 200;" xml:space="preserve">
<style type="text/css">
	.st0{fill:#27217B;}
</style>
<g>
	<path class="st0" d="M103.3,53.7c0,0.6,0,1.3,0,1.9c0,0.7,0,1.4,0,2.1c0-0.7,0-1.4,0-2.1C103.3,55,103.3,54.3,103.3,53.7z"/>
	<path class="st0" d="M53.7,96.7c0.7,0,1.4,0,2.1,0c0.7,0,1.4,0,2.1,0c-0.7,0-1.4,0-2.1,0C55.1,96.7,54.4,96.7,53.7,96.7z"/>
	<path class="st0" d="M182.9,93.7c-1.2-16.2-6.8-30.8-16.5-43.8c-0.3-0.4-0.5-0.8-0.9-1.4c1.8,0,3.4,0,4.9,0c2-0.1,3.3-1.4,3.3-3.3
		c0-1.9-1.3-3.2-3.4-3.2c-4,0-8,0-12,0c-2,0-3.4,1.2-3.4,3.2c-0.1,4.2-0.1,8.4,0,12.5c0,1.9,1.6,3.2,3.3,3.1c1.7,0,3.1-1.4,3.1-3.3
		c0-1,0-2,0-3.1c0.4,0.2,0.5,0.2,0.5,0.3c0.2,0.2,0.3,0.4,0.5,0.6c11.7,16.8,16.3,35.3,13.4,55.5c-2.7,18.9-11.5,34.7-25.9,47.3
		c-24.6,21.7-62.1,25-89.8,7.3C33,148.1,20.6,122.8,24,90.6c2.5-23.2,14.2-41.4,33.5-54.4C73,25.6,90.3,21.6,108.9,23.7
		c2.1,0.2,3.8-0.9,4-2.8c0.2-1.9-1.1-3.3-3.3-3.6c-1.5-0.2-3-0.4-4.5-0.6c-3.5,0-6.9,0-10.4,0c-3.1,0.4-6.2,0.8-9.3,1.3
		C53,23.3,25.8,49.3,18.8,81.7c-7.9,36.7,8.4,73.1,41.1,91.4c10.4,5.8,21.6,9.1,33.5,10c0.5,0,0.9,0.2,1.4,0.3c3.5,0,6.9,0,10.4,0
		c3.1-0.4,6.2-0.8,9.3-1.3c32.5-5.3,60-31.7,66.7-64c0.8-3.8,1.1-7.7,1.7-11.6c0.1-0.4,0.2-0.8,0.3-1.3c0-3.4,0-6.7,0-10.1
		C183.1,94.6,182.9,94.2,182.9,93.7z"/>
	<path class="st0" d="M50.7,65.3c-1.6-0.2-2.6,0.6-3.4,2c-8.2,13.7-11.1,28.4-8.2,44c6.5,34.8,40.1,56.9,74.6,49.2
		c36.1-8,57.4-46.8,44.7-81.6C146.5,46.5,111.4,30,79,41.6c-4,1.4-7.8,3.6-11.7,5.6c-1.9,1-2.3,3-1.4,4.6c1,1.6,2.8,2,4.7,1
		c0.4-0.2,0.8-0.5,1.3-0.7c8.7-5.1,18.1-7.7,28.2-8.1c4,0.6,8.1,0.9,12,1.7c29,6.1,48.4,35.9,42.4,65.1c-7.3,35.3-44.2,54.6-77.1,40
		C53.5,140.2,41.4,115.1,45.3,91c1.2-7.2,3.7-13.9,7.4-20.2c0.5-0.9,0.8-2.2,0.7-3.2C53.2,66.3,52,65.5,50.7,65.3z"/>
	<path class="st0" d="M93.7,89.1c-3.1-3.2-6.2-6.3-9.4-9.4c-0.6-0.6-1.5-1.2-2.3-1.4c-1.5-0.3-2.7,0.3-3.4,1.7
		c-0.8,1.5-0.4,2.8,0.8,4c3.3,3.3,6.5,6.5,9.8,9.8c0.7,0.7,0.9,1.2,0.5,2.2c-0.5,1.2-0.7,2.6-0.8,3.4c0.2,5.3,2.3,8.8,6.7,10.9
		c4,1.9,8.9,1.1,12.1-2c3.5-3.3,4.5-7.4,3-11.9c-0.5-1.4-0.2-2.1,0.7-3c6.7-6.6,13.3-13.2,19.9-19.9c2.1-2.1,2.5-3.9,1-5.5
		c-1.5-1.6-3.4-1.3-5.6,0.9c-6.7,6.7-13.4,13.4-20.1,20.2c-0.8,0.8-1.4,1.1-2.5,0.6c-2.6-1.1-5.3-1.1-7.9,0
		C95,90,94.4,89.8,93.7,89.1z M100,95.3c2.6,0,4.6,2.1,4.6,4.7c0,2.7-2.1,4.7-4.8,4.7c-2.6-0.1-4.6-2.2-4.5-4.8
		C95.4,97.3,97.4,95.3,100,95.3z"/>
	<path class="st0" d="M142.2,103.3c0.6,0,1.3,0,1.9,0c0,0,0,0,0,0c0.8,0,1.5,0,2.3,0c1.7-0.1,2.9-1.3,3-3c0.1-1.7-1-3.2-2.8-3.4
		c-1.6-0.2-3.2-0.1-4.8,0c-1.7,0.2-2.9,1.7-2.8,3.4C139.1,101.9,140.4,103.2,142.2,103.3z"/>
	<path class="st0" d="M103.2,142.4c0,0.6,0,1.3,0,1.9c0,0.6,0.1,1.2,0,1.8c0-0.6,0-1.2,0-1.8C103.1,143.7,103.2,143.1,103.2,142.4z"
		/>
	<path class="st0" d="M103.1,144.4c0-0.6,0.1-1.3,0-1.9c0-0.2,0-0.4-0.1-0.6c-0.3-1.7-1.8-2.9-3.5-2.7c-1.6,0.1-2.8,1.4-2.9,3.1
		c-0.1,1.4-0.1,2.8,0,4.2c0.1,1.7,1.3,3,2.9,3.1c1.7,0.1,3.2-1,3.5-2.7c0-0.2,0-0.4,0.1-0.6C103.2,145.6,103.1,145,103.1,144.4z"/>
	<path class="st0" d="M103.3,55.6c0-0.6,0-1.3,0-1.9c-0.1-1.8-1.3-3.1-3-3.2c-1.7-0.1-3.2,1-3.4,2.8c-0.2,1.6-0.2,3.2,0,4.9
		c0.2,1.8,1.7,2.9,3.4,2.8c1.7-0.1,2.9-1.4,3-3.2C103.3,57,103.3,56.3,103.3,55.6z"/>
	<path class="st0" d="M55.8,96.7c-0.7,0-1.4,0-2.1,0c-1.7,0.1-3,1.3-3.1,2.9c-0.2,1.7,0.9,3.3,2.7,3.5c1.7,0.2,3.5,0.2,5.2,0
		c1.7-0.2,2.7-1.7,2.6-3.4c-0.1-1.6-1.4-2.9-3.1-3C57.2,96.7,56.5,96.7,55.8,96.7z"/>
	<path class="st0" d="M122.4,26.4c1.7,0,3.2-1.4,3.3-3.2c0-1.8-1.3-3.2-3.1-3.3c-1.8-0.1-3.4,1.4-3.4,3.2
		C119.2,24.8,120.7,26.3,122.4,26.4z"/>
	<path class="st0" d="M58.4,61.6c1.8,0,3.2-1.4,3.2-3.2c0-1.8-1.4-3.2-3.1-3.3c-1.8-0.1-3.4,1.5-3.3,3.3
		C55.2,60.1,56.7,61.6,58.4,61.6z"/>
</g>
</svg>
